<?xml version="1.0" encoding="utf-8"?>
<!-- Generator: Adobe Illustrator 27.1.0, SVG Export Plug-In . SVG Version: 6.00 Build 0)  -->
<svg version="1.1" id="Layer_1" xmlns="http://www.w3.org/2000/svg" xmlns:xlink="http://www.w3.org/1999/xlink" x="0px" y="0px"
	 viewBox="0 0 128 128" style="enable-background:new 0 0 128 128;" xml:space="preserve">
<style type="text/css">
	.st0{fill:#FFFFFF;}
</style>
<g>
	<path class="st0" d="M44.9,29.5c-5.5-0.4-14.6-0.3-16.7,2.9c-1.2,1.9-0.9,5.9-0.4,8.8c0.7,4.3,1.8,7.7,4.7,9.4
		c4.2,2.6,14.7,2.4,19,0c2.9-1.6,4.4-4.5,5.6-8.5c0.6-1.9,1.4-5.2,0.7-7.6C56.7,31.1,50.1,29.8,44.9,29.5z"/>
	<path class="st0" d="M66.9,72.8c-0.2,0-3-0.4-5.7,0c-2.8,0.4-13.8,3.3-18.1,6.6c0,0,2,11.1,7,15.8c2.7,2.4,5.3,3.5,6.8,3.3
		c3.5-0.6,4.4-0.5,7.1-0.4c2.7,0,3.6-0.2,7.1,0.4c1.5,0.3,4.4-0.4,6.8-3.3C82.8,88,84.2,79,84.2,79C79.9,75.7,69.3,73.4,66.9,72.8
		C66.9,72.8,66.9,72.8,66.9,72.8z"/>
	<path class="st0" d="M83.1,29.5c-5.2,0.4-11.7,1.6-12.8,5.1c-0.7,2.4,0.1,5.6,0.7,7.6c1.1,4,2.7,6.9,5.6,8.5c4.3,2.4,14.8,2.6,19,0
		c2.9-1.8,3.9-5.1,4.7-9.4c0.5-2.9,0.8-6.9-0.4-8.8C97.7,29.2,88.6,29.1,83.1,29.5z"/>
	<path class="st0" d="M64,0.8C29.1,0.8,0.8,29.1,0.8,64s28.3,63.2,63.2,63.2s63.2-28.3,63.2-63.2S98.9,0.8,64,0.8z M84.7,106
		c0,0-1.4,5.6-20.6,5.6c0,0-0.1,0-0.1,0c0,0-0.1,0-0.1,0c-19.2,0-20.6-5.6-20.6-5.6C36.5,94.2,34.7,89,29.8,68.1
		c7.1,11.8,17.1-1.3,32.3-1.2l4.5,0l0,0c14.8,0.4,23,13.9,31.7,1.2C93.7,89.7,91,95.6,84.7,106z M106.7,36c-0.3,1.1-1.6,2.4-2.3,3.5
		c-2,3.4-3,8.7-5.6,11.3c-3.2,3.3-10.5,3.6-16.5,3.2c-8.9-0.5-11.1-5.1-14-11.7c-1-2.2-1.7-5.2-3.9-5.6v0c-0.2,0-0.4,0-0.5,0
		c-0.2,0-0.4,0-0.5,0v0c-2.2,0.4-3,3.4-3.9,5.6c-2.8,6.6-5.1,11.2-14,11.7c-6,0.4-13.3,0.1-16.5-3.2c-2.6-2.6-3.6-7.9-5.6-11.3
		c-0.6-1.1-2-2.3-2.3-3.5c-0.5-2.2,0.1-5.1,0-7.3c8.4-3.1,21.6-3.2,30.8-1.2c1.6,0.3,7.1,2.1,7.6,2.3c1.3,0.4,2.5,0.6,3.8,0.6v0
		c0.2,0,0.4,0,0.5,0c0.2,0,0.4,0,0.5,0v0c1.2,0,2.5-0.2,3.8-0.6c0.5-0.1,6-1.9,7.6-2.3c9.3-2,22.5-1.9,30.8,1.2
		C106.7,30.9,107.3,33.7,106.7,36z"/>
</g>
<text transform="matrix(1 0 0 1.27 -1120.9351 -22.0215)" style="font-family:'MyriadPro-Regular'; font-size:70px;">S</text>
<text transform="matrix(1 0 0 1 -1086.4253 -22.0215)" style="font-family:'MyriadPro-Regular'; font-size:70px;">r.</text>
<text transform="matrix(1 0 0 1 -1067.9781 -34.5436)" style="font-family:'MyriadPro-Regular'; font-size:70px;">P</text>
</svg>
