<?xml version="1.0" encoding="utf-8"?>
<!-- Generator: Adobe Illustrator 27.1.0, SVG Export Plug-In . SVG Version: 6.00 Build 0)  -->
<svg version="1.1" id="Layer_1" xmlns="http://www.w3.org/2000/svg" xmlns:xlink="http://www.w3.org/1999/xlink" x="0px" y="0px"
	 viewBox="0 0 128 128" style="enable-background:new 0 0 128 128;" xml:space="preserve">
<style type="text/css">
	.st0{fill:#FFFFFF;}
</style>
<g>
	<path class="st0" d="M84.4,23.1c-5.6,0.4-12.6,1.8-13.7,5.4c-0.8,2.5,0.1,6,0.7,8.1c1.2,4.3,2.9,7.4,6,9.1c4.6,2.6,15.9,2.8,20.4,0
		c3.1-1.9,4.2-5.5,5-10.1c0.5-3.1,0.9-7.4-0.4-9.4C100.1,22.8,90.3,22.7,84.4,23.1z"/>
	<path class="st0" d="M43.6,23.1c-5.9-0.4-15.7-0.3-17.9,3.1c-1.3,2-0.9,6.3-0.4,9.4c0.8,4.6,1.9,8.2,5,10.1
		c4.5,2.8,15.8,2.6,20.4,0c3.1-1.7,4.8-4.8,6-9.1c0.6-2.1,1.5-5.6,0.7-8.1C56.1,24.9,49.1,23.5,43.6,23.1z"/>
	<path class="st0" d="M67.1,69.6c-0.2,0-3.3-0.4-6.1,0c-3,0.5-14.8,3.5-19.4,7.1c0,0,2.1,11.9,7.5,16.9c2.9,2.6,5.7,3.8,7.3,3.5
		c3.8-0.6,4.7-0.5,7.6-0.5c2.9,0,3.8-0.2,7.6,0.5c1.7,0.3,4.7-0.4,7.3-3.5c5.2-7.6,6.7-17.3,6.7-17.3C81,72.7,69.7,70.2,67.1,69.6
		C67.1,69.6,67.1,69.6,67.1,69.6z"/>
	<path class="st0" d="M113.9,0.8H14.1c-7.4,0-13.3,6-13.3,13.3v99.7c0,7.4,6,13.3,13.3,13.3h99.7c7.4,0,13.3-6,13.3-13.3V14.1
		C127.2,6.8,121.2,0.8,113.9,0.8z M86.2,105.1c0,0-1.5,6-22.1,6c0,0-0.1,0-0.1,0c0,0-0.1,0-0.1,0c-20.6,0-22.1-6-22.1-6
		C34.5,92.6,32.6,87,27.3,64.6c7.6,12.6,18.3-1.4,34.6-1.3l4.8,0l0,0c15.9,0.4,24.6,14.9,33.9,1.3C95.9,87.7,92.9,94,86.2,105.1z
		 M109.8,30.1c-0.3,1.2-1.8,2.6-2.4,3.7c-2.1,3.6-3.2,9.3-6,12.1c-3.4,3.5-11.3,3.8-17.7,3.4c-9.5-0.6-11.9-5.5-15-12.5
		c-1-2.4-1.8-5.6-4.2-6v0c-0.2,0-0.4,0-0.6,0c-0.2,0-0.4,0-0.6,0v0c-2.4,0.4-3.2,3.6-4.2,6c-3,7.1-5.5,12-15,12.5
		c-6.4,0.4-14.2,0.1-17.7-3.4c-2.8-2.8-3.9-8.5-6-12.1c-0.7-1.1-2.1-2.5-2.4-3.7c-0.6-2.4,0.1-5.5,0-7.8c9-3.3,23.1-3.4,33-1.3
		c1.7,0.3,7.6,2.3,8.1,2.4c1.4,0.4,2.7,0.6,4,0.6v0c0.2,0,0.4,0,0.6,0c0.2,0,0.4,0,0.6,0v0c1.3,0,2.7-0.2,4-0.6
		c0.5-0.2,6.4-2.1,8.1-2.4c10-2.1,24.1-2,33,1.3C109.7,24.7,110.4,27.7,109.8,30.1z"/>
</g>
</svg>
